<svg xmlns="http://www.w3.org/2000/svg" width="235" height="103" fill="none"><path fill="#AE285D" d="M59.692 31c2.313 3.975 4.647 7.938 6.936 11.928-3.7 6.525-7.345 13.082-11.17 19.536-1.467 2.477-2.895 4.978-4.345 7.464-4.705.028-9.409.026-14.113.02.144-.322.285-.646.46-.953C44.865 56.327 52.3 43.677 59.691 31zm102.363 9.77c2.6 4.848 5.2 9.694 7.797 14.544-.916.018-1.833-.028-2.748.003-.614-1.068-1.146-2.182-1.747-3.257-2.311-.068-4.623-.021-6.935-.026-.557 1.106-1.165 2.185-1.756 3.272-.903-.009-1.806.018-2.708.01 2.661-4.87 5.331-9.736 8.097-14.546zm-2.476 9.19c1.576.022 3.153.019 4.731.032-.79-1.469-1.501-2.98-2.347-4.417a219.442 219.442 0 0 0-2.384 4.385zm11.789-9.245c3.926 3.412 7.853 6.826 11.731 10.294.107-3.13-.014-6.26.082-9.39.839.017 1.679.03 2.519.045-.027 4.822-.014 9.644-.019 14.465-2.579-2.145-5.056-4.41-7.604-6.595-1.417-1.212-2.821-2.438-4.175-3.718-.033 3.17.015 6.342-.053 9.512-.835.003-1.67-.018-2.503-.012.007-4.867-.035-9.734.022-14.601zM88.383 55.296c2.713-4.843 5.355-9.724 8.13-14.53 2.584 4.853 5.183 9.7 7.797 14.535-.929.022-1.858.02-2.787.002-.565-1.084-1.142-2.16-1.681-3.257-2.32-.03-4.636-.005-6.955-.005-.604 1.093-1.15 2.222-1.803 3.289-.901-.026-1.801-.007-2.7-.034zm5.63-5.322c1.585-.006 3.17.015 4.757.01-.798-1.46-1.5-2.973-2.356-4.402-.806 1.463-1.602 2.927-2.4 4.392zm32.974-7.954c1.325-.652 2.878-.737 4.312-.448 1.242.262 2.24 1.145 2.998 2.123-.673.34-1.341.686-2.002 1.048-.891-1.394-3.013-1.838-4.307-.75-.686.49-.631 1.699.144 2.072 1.736.957 3.848 1.162 5.387 2.486 1.569 1.33 1.509 3.99.055 5.386-1.561 1.582-4.033 1.926-6.108 1.333-1.738-.439-3.045-2.036-3.277-3.792a41.916 41.916 0 0 1 2.537-.468c.102.823.414 1.73 1.19 2.144 1.229.659 3.01.494 3.858-.697.598-.81.421-2.053-.395-2.645-1.706-1.144-3.972-1.214-5.503-2.655-.808-.688-1.143-1.836-.868-2.856.219-1.04 1.069-1.81 1.979-2.28zm-21.864-.306c.953-.125 1.916-.082 2.874-.072 1.025 1.526 2.048 3.052 3.075 4.576 1.08-1.506 2.13-3.033 3.195-4.55a46.953 46.953 0 0 1 2.95-.017c-1.559 2.168-3.128 4.331-4.691 6.498 1.591 2.413 3.327 4.73 4.881 7.167-.936.005-1.873-.004-2.809-.012-1.192-1.714-2.376-3.435-3.568-5.15-1.232 1.721-2.474 3.434-3.691 5.165-.948.018-1.898.005-2.846.007 1.649-2.417 3.386-4.773 5.1-7.145-1.474-2.167-2.976-4.314-4.47-6.467zm14.402-.061a49.4 49.4 0 0 1 2.533-.005c.005 4.556.001 9.112.001 13.667-.858.002-1.714 0-2.572 0 .032-4.554.017-9.108.038-13.662zm24.647-.01c2.167.093 4.504-.299 6.5.763 1.947 1.041 2.396 4.131.601 5.53 1.13.446 2.224 1.286 2.521 2.523.476 1.517-.364 3.197-1.691 3.983-2.419 1.329-5.269.71-7.895.89-.081-4.563-.03-9.125-.036-13.69zm2.514 1.966c.005 1.302.001 2.603-.007 3.903.942-.038 1.985.019 2.788-.562.82-.73.789-2.24-.115-2.89-.792-.5-1.768-.444-2.666-.45zm.015 5.691a151.1 151.1 0 0 0 .02 3.983c1.263-.066 2.624.167 3.789-.459 1.034-.507 1.224-2.167.264-2.844-1.157-.898-2.709-.651-4.073-.68zm41.915-7.658c.841-.006 1.683-.003 2.526-.001.003 1.8-.017 3.6.022 5.402 2.073-1.825 4.186-3.603 6.271-5.412 1.152.006 2.304.011 3.456.008a469.993 469.993 0 0 0-7.399 6.192c2.404 2.537 4.895 4.99 7.354 7.473-1.142-.011-2.286.079-3.422-.053a930.033 930.033 0 0 1-5.838-6.018c-.142.187-.282.374-.421.56-.05 1.842-.005 3.682-.037 5.523-.846-.005-1.692.017-2.537.012.007-4.561.018-9.123.025-13.686zM59.692 55.232c4.721-.001 9.442-.035 14.163.044 2.811 4.901 5.713 9.749 8.499 14.663-4.721.024-9.44.005-14.161.002-2.81-4.918-5.744-9.76-8.5-14.709z"/></svg>