<svg xmlns="http://www.w3.org/2000/svg" width="238" height="103" fill="none"><path fill="#131414" d="M119.448 70.186c-1.945 0-3.502-.46-4.674-1.382-1.218-.937-1.827-2.3-1.827-4.087h3.701c0 .585.207 1.109.621 1.57.398.444 1.117.667 2.155.667.859 0 1.491-.191 1.897-.574.414-.367.621-.855.621-1.464 0-.625-.214-1.128-.644-1.511-.461-.367-1.163-.55-2.108-.55h-1.464V59.61h1.417c1.515 0 2.272-.597 2.272-1.792 0-.492-.191-.894-.574-1.206-.39-.32-.925-.48-1.604-.48-.765 0-1.339.203-1.722.609-.39.414-.586.956-.586 1.628h-3.712c0-1.695.558-3.03 1.674-4.006 1.094-.976 2.565-1.464 4.416-1.464 1.679 0 3.08.422 4.205 1.265 1.132.851 1.698 1.94 1.698 3.268 0 .882-.207 1.624-.621 2.225a3.5 3.5 0 0 1-1.663 1.324v.093c.765.227 1.429.691 1.991 1.394.547.687.82 1.487.82 2.401 0 1.507-.519 2.768-1.558 3.783-1.046 1.023-2.623 1.534-4.731 1.534zm12.274-.21V56.905h-.094l-3.865 2.88h-.234v-3.524l4.17-3.08h3.747v16.795h-3.724zm17.627-2.132c-1.078 1.562-2.725 2.342-4.943 2.342-2.217 0-3.865-.78-4.942-2.342-1.086-1.57-1.628-3.674-1.628-6.313 0-2.616.542-4.708 1.628-6.278 1.085-1.57 2.733-2.354 4.942-2.354 2.21 0 3.857.785 4.943 2.354 1.085 1.57 1.628 3.662 1.628 6.278 0 2.64-.543 4.744-1.628 6.313zm-7.098-2.214c.414.867 1.132 1.3 2.155 1.3s1.749-.433 2.179-1.3c.421-.866.632-2.233.632-4.099 0-1.843-.218-3.201-.656-4.076-.429-.866-1.147-1.3-2.155-1.3-1.007 0-1.725.434-2.155 1.3-.437.875-.656 2.233-.656 4.076 0 1.882.219 3.248.656 4.1zm22.16 2.214c-1.078 1.562-2.725 2.342-4.943 2.342-2.217 0-3.865-.78-4.942-2.342-1.086-1.57-1.628-3.674-1.628-6.313 0-2.616.542-4.708 1.628-6.278 1.085-1.57 2.732-2.354 4.942-2.354s3.857.785 4.943 2.354c1.085 1.57 1.628 3.662 1.628 6.278 0 2.64-.543 4.744-1.628 6.313zm-7.098-2.214c.414.867 1.132 1.3 2.155 1.3s1.749-.433 2.179-1.3c.421-.866.632-2.233.632-4.099 0-1.843-.219-3.201-.656-4.076-.429-.866-1.148-1.3-2.155-1.3s-1.725.434-2.155 1.3c-.437.875-.656 2.233-.656 4.076 0 1.882.219 3.248.656 4.1zm22.16 2.214c-1.078 1.562-2.725 2.342-4.943 2.342-2.217 0-3.865-.78-4.942-2.342-1.086-1.57-1.628-3.674-1.628-6.313 0-2.616.542-4.708 1.628-6.278 1.085-1.57 2.732-2.354 4.942-2.354s3.857.785 4.943 2.354c1.085 1.57 1.628 3.662 1.628 6.278 0 2.64-.543 4.744-1.628 6.313zm-7.098-2.214c.414.867 1.132 1.3 2.155 1.3s1.749-.433 2.179-1.3c.421-.866.632-2.233.632-4.099 0-1.843-.219-3.201-.656-4.076-.429-.866-1.148-1.3-2.155-1.3s-1.726.434-2.155 1.3c-.437.875-.656 2.233-.656 4.076 0 1.882.219 3.248.656 4.1zm-52.811-19.893c-1.727 0-3.061-.552-4.001-1.656-.94-1.088-1.41-2.54-1.41-4.354s.47-3.274 1.41-4.378c.946-1.11 2.279-1.664 4.001-1.664 1.421 0 2.569.396 3.443 1.189.869.787 1.361 1.822 1.476 3.107h-2.017c-.082-.754-.366-1.358-.852-1.812-.481-.448-1.165-.672-2.05-.672-1.148 0-2.001.385-2.558 1.156-.558.787-.836 1.812-.836 3.074 0 1.268.278 2.288.836 3.058.557.77 1.41 1.156 2.558 1.156.836 0 1.5-.213 1.992-.64.487-.42.795-1.002.927-1.746h2c-.148 1.236-.653 2.244-1.517 3.026-.852.77-1.987 1.156-3.402 1.156zm11.163-.147V33.831h1.984V45.59h-1.984zm13.639.147c-1.727 0-3.06-.552-4-1.656-.941-1.088-1.411-2.54-1.411-4.354s.47-3.274 1.411-4.378c.945-1.11 2.279-1.664 4-1.664 1.422 0 2.569.396 3.444 1.189.869.787 1.361 1.822 1.476 3.107h-2.017c-.082-.754-.366-1.358-.853-1.812-.481-.448-1.164-.672-2.05-.672-1.147 0-2 .385-2.558 1.156-.557.787-.836 1.812-.836 3.074 0 1.268.279 2.288.836 3.058.558.77 1.411 1.156 2.558 1.156.837 0 1.501-.213 1.993-.64.486-.42.795-1.002.926-1.746h2.001c-.148 1.236-.654 2.244-1.517 3.026-.853.77-1.987 1.156-3.403 1.156zm17.542-4.813 3.009 4.501v.164h-2.23l-2.837-4.435h-2.353v4.435h-1.967V33.832h4.968c1.175 0 2.11.347 2.804 1.042.694.694 1.041 1.557 1.041 2.59 0 .842-.216 1.564-.648 2.165-.42.607-1.016 1.038-1.787 1.295zm-4.411-5.313v3.764h2.886c.651 0 1.132-.173 1.443-.517.328-.344.492-.803.492-1.377 0-.563-.164-1.017-.492-1.361-.339-.34-.82-.508-1.443-.508h-2.886zm18.838-1.779 4.214 11.593v.164h-2.148l-.927-2.722h-4.796l-.926 2.722h-2.083v-.164l4.198-11.593h2.468zm-3.075 7.305h3.632l-1.779-5.239h-.074l-1.779 5.24zm-78.342 7.198c.39.582.364 1.344.443 2.027-.027 1.446.1 3.169-.158 4.64-.131.61-.542 1.242-1.19 1.472-1.038.456-2.438.328-3.397-.203-.805-.558-.906-1.495-1.01-2.384-.08-1.75-.211-3.6.284-5.2.39-.986 1.453-1.24 2.412-1.317 1.01 0 1.995.153 2.616.965z"/><path fill="#131414" d="m80.786 70.517-.18.153c-2.7.582-5.715.607-8.416-.052l.203-.228c2.374-1.547 6.073-1.547 8.393.127zm-9.132-.582-.511.405c-2.145-.558-4.134-1.521-5.972-2.839v-.076c.613-.381 1.226-.786 1.89-1.064 1.453 1.442 2.959 2.535 4.593 3.574zm16.174-2.51c-1.426 1.14-3.085 1.902-4.77 2.534l-1.2.38a2.979 2.979 0 0 1-.56-.404l.048-.077c1.637-.963 3.117-2.13 4.517-3.523.692.28 1.353.659 1.965 1.09zm-2.726-1.444c-.819.936-1.865 1.748-2.837 2.433-.586.355-1.173.736-1.785 1.04l-1.099-.482.079-.177a30.602 30.602 0 0 0 2.45-3.854l.075-.052a14.18 14.18 0 0 1 3.117 1.092zm-14.035-1.066c.739 1.394 1.658 2.711 2.577 4.029-.359.206-.79.333-1.15.534a17.19 17.19 0 0 1-4.643-3.397v-.076c.995-.481 2.041-.837 3.112-1.116l.104.026zm10.078-.228.022.077c-.709 1.368-1.606 2.685-2.574 3.928-.433.05-.84-.127-1.278-.153l-.429-.049c-.052-1.496-.078-2.816 0-4.31 1.453.026 2.906.177 4.259.507zm-5.028 3.778c-.534.126-1.122.126-1.633.253-1.047-1.243-1.913-2.586-2.653-3.98l.128-.103c1.326-.252 2.705-.456 4.134-.456l.024 4.285zm-5.357-5.83c-.256 0-.537-.053-.715.024l.638 1.494-.075.077c-1.15.328-2.273.735-3.368 1.192l-.105-.052a19.997 19.997 0 0 1-1.965-2.51c-.124-.429-.635-.177-.916-.225.612 1.114 1.427 2.103 2.246 3.116-.69.407-1.379.865-2.094 1.193a18.409 18.409 0 0 1-4.03-4.285c-.308-.05-.512-.024-.817 0 1.835 2.89 4.695 5.425 7.68 6.92l.025-.024.027.076c2.014.987 4.157 1.699 6.428 2.002 7.833 1.04 15.309-2.332 19.646-8.974a4.635 4.635 0 0 0-.818 0c-1.068 1.547-2.42 3.044-3.9 4.208l-.254-.024c-.64-.405-1.33-.737-1.943-1.14.818-.991 1.61-1.978 2.223-3.068h-.792c-.64.936-1.305 1.923-2.145 2.761-1.125-.455-2.145-.862-3.291-1.166l-.127-.1c.18-.508.508-.99.612-1.495h-.687l-.691 1.367c-1.506-.33-3.165-.507-4.697-.608-.074-.228.031-.558-.074-.76h-.664c-.05.303.076.532-.075.784a29.998 29.998 0 0 0-4.594.558l-.688-1.341zM54.583 43.162 53 43.188a121.799 121.799 0 0 0 0 4.283c.868.028 1.685 0 2.527.077v8.622l-.027.352-2.526.053a56.618 56.618 0 0 0 0 4.182h11.252v-4.182c-.842-.053-1.786.024-2.602-.077l.025-8.898.052-.077 2.525-.024c.028-1.446.052-2.991-.024-4.311l-9.62-.026zm43.352 1.523c-3.318-2.13-8.373-2.283-11.787-.357-1.865.963-3.09 2.867-3.47 4.817-.692 3.221-.513 7.049 1.933 9.458 2.863 2.535 7.021 3.093 10.72 2.053.174-.035.735-.177 1.115-.383l.11-.048c1.147-.481 2.245-1.27 3.06-2.333 1.89-2.788 2.017-6.972.866-10.115-.455-1.217-1.4-2.306-2.547-3.092zm-21.639-.812c-2.807-1.193-6.736-1.317-9.287.532-1.66 1.217-2.17 3.396-1.736 5.324.333 1.825 2.067 3.17 3.725 3.802 2.273.812 4.646 1.394 6.94 2.181.232.101.537.329.489.609 0 .227-.233.354-.413.455-2.397.659-5 .153-6.733-1.672-.204-.254-.332-.558-.538-.812l-3.444.026c-.05 2.053-.077 4.41 0 6.439l3.827-.024.052-1.219c.434.205.868.457 1.302.687 2.653 1.114 6.074 1.366 8.7 0 1.913-1.068 2.937-3.12 2.652-5.324-.28-2.156-2.32-4.108-4.385-4.642l-6.176-1.799-.46-.23c-.203-.177-.331-.404-.282-.682.486-.836 1.61-.582 2.452-.558 1.786.253 3.62.862 4.667 2.51 1.125 0 2.425.024 3.65-.024.048-2.081-.026-3.907-.052-6.012a59.39 59.39 0 0 0-3.699.029c-.052.304.048.733-.079 1.039l-1.172-.635zm2.065-8.62c.998 1.267 1.965 2.56 2.63 3.954-1.378.33-2.779.506-4.21.506-.052-1.342-.026-2.839 0-4.233.512-.076 1.073-.153 1.58-.227zm-2.395.203c.077 1.318.024 2.839.024 4.233-.715.1-1.351-.024-2.066-.077-.69-.1-1.558-.177-2.245-.405.74-1.394 1.606-2.737 2.652-3.98l1.635.23zm-2.477-.481-.076.201c-.97 1.217-1.734 2.536-2.501 3.83l-.1.024c-1.047-.278-2.069-.609-3.037-1.04l.051-.153c1.403-1.342 2.883-2.458 4.516-3.32.383.151.764.28 1.147.458zm11.481 2.89-.048.075c-.997.431-2.017.836-3.116 1.066a41.604 41.604 0 0 0-2.626-3.98c.358-.204.792-.358 1.173-.559 1.659.836 3.265 2.029 4.617 3.399zm-13.395-3.83c-1.581.99-3.137 2.156-4.566 3.575-.689-.254-1.328-.633-1.94-1.066v-.048c1.608-1.193 3.394-2.08 5.283-2.69l.228-.149v.048c.204.053.36-.177.536-.024l.459.355zm16.074 2.408-.048.101-1.76.991h-.131c-1.348-1.37-2.932-2.56-4.543-3.499l.49-.431a18.08 18.08 0 0 1 5.992 2.838zm-7.016-3.092v.05c-2.22 1.624-5.817 1.775-8.163.28l-.408-.33c2.705-.635 5.892-.685 8.57 0zm-2.626-1.14a11.39 11.39 0 0 0-2.273-.026c-.28-.025-.611 0-.943.026-6.124.481-11.763 3.65-15.283 9.051.255-.026.56.075.815-.026a23.875 23.875 0 0 1 2.067-2.51c.663-.635 1.277-1.241 1.992-1.698.664.43 1.402.785 2.04 1.19-.792.99-1.607 1.978-2.195 3.044.18.075.511.05.766 0 .637-.938 1.328-1.877 2.143-2.713 1.098.404 2.17.836 3.292 1.14l.1.1-.636 1.473c.28.05.46.024.74 0 .23-.433.408-.914.663-1.343 1.48.328 3.036.505 4.618.558.204.175.053.558.13.785h.685c.08-.256-.021-.534.08-.761 1.479-.077 3.032-.23 4.464-.582l.127.024.687 1.32c.232 0 .538.05.718-.053l-.64-1.468.053-.053c1.173-.304 2.272-.76 3.392-1.217.793.836 1.532 1.828 2.197 2.79.28 0 .56.024.762-.052a9.997 9.997 0 0 0-1.094-1.598c-.333-.481-.692-.91-1.125-1.367v-.127l1.786-1.04.258-.1a18.648 18.648 0 0 1 4.027 4.232c.306 0 .564.103.818-.024-3.418-5.172-9.055-8.494-15.157-8.975l-.026.05-.048-.05zM48 26h56.898v51.971H48V26z"/><path fill="#131414" fill-rule="evenodd" d="M188.215 26.8H48.812v50.37h139.403V26.8zM48.013 26v51.971h141.002V26H48.013z" clip-rule="evenodd"/></svg>