<svg xmlns="http://www.w3.org/2000/svg" width="238" height="103" fill="none"><path fill="#004A7F" d="M71.307 62.722h5.636l4.417-16.464h-5.577l-4.476 16.464zm28.893 0h5.635l4.418-16.464h-5.635L100.2 62.722zm28.944 0h5.58l4.365-16.464h-5.635l-4.31 16.464zM94.951 51.894h5.635c.773-3.7-1.601-5.578-7.126-5.578-6.408 0-10.716 3.148-12.207 8.507-1.272 4.97 1.326 7.955 7.345 7.955 6.077 0 9.666-1.878 11.16-6.133h-5.635c-.829 1.878-2.264 2.817-4.252 2.817-2.709 0-3.813-1.657-2.985-4.805.883-3.26 2.985-5.083 5.69-5.083 1.768 0 2.54.773 2.375 2.32zm28.947 0h5.636c.773-3.7-1.66-5.578-7.185-5.578-6.353 0-10.715 3.148-12.151 8.507-1.325 4.97 1.27 7.955 7.292 7.955s9.611-1.878 11.157-6.133h-5.632c-.776 1.878-2.267 2.817-4.255 2.817-2.706 0-3.81-1.657-2.929-4.805.831-3.26 2.929-5.083 5.635-5.083 1.77 0 2.598.773 2.432 2.32z"/><path fill="#F06321" d="M49.598 37.147c7.513-7.458 16.627-9.394 20.274-4.31 3.648 5.083.442 15.356-7.07 22.814-7.514 7.513-16.628 9.446-20.33 4.307-3.59-5.135-.384-15.357 7.126-22.811z"/><path fill="#AE282E" d="M54.57 33.168c-.828.607-1.657 1.325-2.485 2.101-6.574 6.516-9.338 15.465-6.077 19.94 3.368 4.473 11.433 2.817 18.173-3.757 3.648-3.535 6.077-7.624 7.071-11.434.276-2.816-.11-5.304-1.38-7.181-2.872-3.976-9.06-3.648-15.302.33z"/><path fill="#fff" d="M64.07 33.997v.165c-.055.94-.607 2.099-1.6 3.093-1.492 1.435-3.48 1.988-4.31 1.162-.94-.883-.385-2.819 1.106-4.365 1.547-1.491 3.534-1.988 4.363-1.105.276.277.441.608.441 1.05zM58.328 59.35c-3.537 2.651-7.182 3.98-10.719 3.427 1.491.055 2.709-1.604 3.703-3.813.994-2.264 1.546-4.363 2.043-6.353.718-3.148.773-5.357.386-5.854-.607-.776-1.932-.607-3.481.276-.773.442-1.767.166-.605-1.27 1.215-1.436 5.909-4.862 7.565-5.414 1.88-.497 3.979.22 3.261 2.264-.5 1.49-7.016 18.505-2.154 16.737z"/><path fill="#004A7F" d="m147.541 60.124 1.27-4.748h3.092v-2.54h-2.374l1.104-4.035h1.27v-2.487h-4.199l-4.363 16.464h8.562v-2.654h-4.362zm4.362-4.748h.608c2.819 0 4.144.497 3.592 2.43-.442 1.711-1.823 2.319-4.2 2.319v2.653c2.322 0 4.034-.221 5.746-1.383a5.55 5.55 0 0 0 2.322-3.259c.605-2.264-.389-3.813-2.985-4.141 2.43-.442 3.979-1.715 4.473-3.703.442-1.49.055-2.595-.994-3.313-.883-.607-2.374-.665-4.362-.665h-4.2V48.8h2.156c2.651 0 3.866.332 3.479 1.988-.497 1.602-1.932 2.046-4.638 2.046h-.997v2.54zm15.467-4.142v2.04a1.92 1.92 0 0 0-.994 1.163h-3.313c.549-1.602 2.043-2.709 4.307-3.203zm0 9.666c-.387.11-.828.166-1.27.166-1.491 0-2.154-.61-1.822-1.715.331-1.27 1.325-1.712 3.092-1.877V55.54c-3.813.276-5.911 1.27-6.574 3.755-.608 2.264.831 3.758 3.813 3.758.994 0 1.933-.166 2.761-.497V60.9zm3.206-3.426-.056.166c-.442 1.711-1.604 2.874-3.15 3.26v1.657a7.144 7.144 0 0 0 2.209-1.38l-.276 1.6h3.316c.165-.775.331-1.659.552-2.542l1.27-4.639c.11-.386.166-.773.166-1.16v-.551c-.111-1.88-1.712-2.875-4.694-2.875-.942 0-1.77.11-2.543.224v2.04c.497-.273 1.104-.383 1.88-.383 1.709 0 2.375.77 1.875 2.43l-.053.165h-1.769c-.66 0-1.326.055-1.933.055v1.933h3.206zm5.026 5.304h3.371l1.601-5.912c.552-2.098 2.485-3.592 4.528-3.592 1.988 0 2.709 1.163 2.046 3.482l-1.604 6.022h3.371l1.878-7.016c.773-2.982-.718-4.752-4.031-4.752-2.157 0-3.868.773-5.359 2.32l.386-2.044h-3.368c-.332 1.823-.553 2.93-.666 3.372l-2.153 8.12zm16.295 0h3.316l1.657-6.188 4.476 6.188h4.583l-5.083-6.574 6.85-4.918h-4.252l-6.353 4.586 2.54-9.556h-3.313l-4.421 16.462z"/></svg>