<svg xmlns="http://www.w3.org/2000/svg" width="235" height="103" fill="none"><path fill="#131414" fill-rule="evenodd" d="M97.996 28.687c-16.555.938-49.578 2.785-49.805 2.785-.104 0-.191.073-.191.162 0 .239 17.077 45.932 17.22 46.078.069.068 4.752-1.314 10.412-3.07 5.66-1.755 13.058-4.043 16.443-5.083 3.384-1.04 6.208-1.942 6.276-2.004.069-.062-.116-.505-.411-.985s-.696-1.372-.893-1.982l-.358-1.108-1.77-.006c-2.144-.006-4.371-.303-6.229-.83-3.634-1.03-6.254-3.49-7.072-6.636-.298-1.14-.31-4.099-.021-5.163.667-2.452 2.416-4.596 4.887-5.985 1.96-1.102 5.165-1.765 8.512-1.76 2.362.002 3.671.144 4.939.535l.831.257v2.62c0 1.442-.021 2.622-.048 2.622s-.42-.176-.873-.39c-2.551-1.209-5.983-1.263-7.96-.127a5.342 5.342 0 0 0-2.443 6.142c.62 2.088 2.878 3.721 5.52 3.989 1.362.138 4.443-.306 5.843-.84.401-.154.422-.14.422.269 0 .383.075.45.679.599.374.092 1.135.4 1.692.685l1.014.519V43.397h7.691l.009 6.152c.008 6.064.012 6.146.299 5.774.16-.208 1.446-1.974 2.857-3.925 1.413-1.951 2.771-3.803 3.023-4.116l.457-.568-4.282-9.357L110.383 28l-.463.019c-.253.01-5.62.311-11.924.668zm12.385 4.499c1.764.808 2.554 1.918 2.662 3.737.062 1.056.025 1.274-.341 2.008-.762 1.526-2.105 2.363-3.964 2.472-1.461.086-2.481-.233-3.464-1.081-2.441-2.11-1.886-5.673 1.102-7.06 1.24-.576 2.848-.606 4.005-.076zm44.921 2.113c-2.62.669-4.073 2.421-3.886 4.692.042.51.183 1.135.316 1.386.694 1.315 2.483 2.335 5.384 3.07 2.588.654 3.185 1.032 3.185 2.018 0 .615-.879 1.452-1.563 1.488-1.909.1-2.78-.418-3.206-1.915l-.199-.695-.786.08c-.432.044-1.466.122-2.302.174l-1.516.095.095.587c.32 1.96 1.583 3.606 3.221 4.196 2.437.88 6.098.787 8.092-.204 2.199-1.094 3.362-3.535 2.72-5.705-.596-2.006-2.098-2.99-6.044-3.95-2.418-.59-2.977-.87-2.969-1.489.014-.992 1.515-1.491 2.842-.947.553.227 1.151 1.008 1.153 1.504 0 .269.094.28 1.501.19a47.565 47.565 0 0 1 2.327-.099h.829l-.094-.679c-.22-1.573-1.367-2.947-2.967-3.552-.758-.287-1.265-.35-3.135-.392-1.488-.033-2.485.016-2.998.147zm15.537-.003c-1.783.444-3.214 1.587-3.684 2.938-.546 1.57-.179 3.094 1.01 4.184.953.877 2.165 1.421 4.494 2.023 2.597.671 3.179 1.041 3.179 2.024 0 .615-.877 1.452-1.561 1.489-1.878.1-2.728-.383-3.143-1.786l-.245-.827-.794.081a80.23 80.23 0 0 1-2.315.176l-1.516.095.093.678c.141 1.012.923 2.486 1.683 3.173 1.951 1.764 7.021 2.087 9.815.625 2.082-1.089 3.167-3.482 2.539-5.603-.592-1.998-1.992-2.926-5.888-3.904-2.975-.747-3.403-1.036-2.959-1.996.493-1.058 2.811-.906 3.518.231.17.275.312.63.312.787 0 .269.093.28 1.5.19a47.496 47.496 0 0 1 2.308-.099c.748 0 .806-.027.806-.36 0-1.497-1.365-3.26-3-3.874-.779-.293-1.267-.353-3.152-.391-1.444-.03-2.504.022-3 .146zm-35.922 7.791v7.707l4.116-.002c4.469-.003 5.556-.13 6.917-.806 1.062-.528 2.398-1.988 2.813-3.074.921-2.405.808-5.946-.26-8.165-.575-1.198-1.89-2.453-3.05-2.91-.893-.352-1.064-.364-5.728-.41l-4.808-.046v7.706zm8.076-3.833c.998.502 1.369 1.406 1.44 3.508.06 1.855-.112 2.841-.625 3.548-.435.598-1.027.81-2.622.94l-1.345.108v-8.52l1.268.053c.893.038 1.452.146 1.884.363zm-13.359 2.132c-.811.133-2.855 1.07-3.83 1.754-3.642 2.564-7.585 7.45-12.732 15.776-3.522 5.695-4.191 6.756-4.398 6.969-.19.192-.404.035-1.667-1.224-1.814-1.81-2.855-2.684-4.02-3.38-.786-.47-1.006-.534-1.569-.462-1.604.205-2.497 1.114-2.497 2.54 0 .781.06.915 1.014 2.24 2.458 3.405 5.115 6.287 6.26 6.783.854.371 2.898.542 3.752.315 1.182-.315 1.922-1.36 6.05-8.544 3.271-5.692 5.367-9.129 7.275-11.925 3.449-5.058 5.628-7.513 9.029-10.17.314-.244.349-.336.189-.496-.201-.202-2.017-.313-2.856-.176zm-55.866 2.435c2.765.744 4.475 1.948 5.354 3.769.46.95.49 1.122.49 2.676 0 1.482-.043 1.752-.409 2.517-1.309 2.741-4.504 4.234-9.588 4.48l-2.001.098-.042 2.981-.041 2.981h-7.686V43.376l6.345.057c5.953.054 6.423.078 7.578.388zm-6.269 3.888c-.064.064-.116 1.268-.116 2.675v2.559l1.519-.06c1.348-.053 1.59-.107 2.167-.482 1.186-.77 1.59-2.512.823-3.549-.503-.68-1.633-1.126-3.036-1.196-.683-.035-1.294-.01-1.357.053zm69.342 5.788c-.783.19-1.141.453-1.461 1.07-.623 1.199-.282 2.754.753 3.432.629.413 1.938.467 2.645.109.407-.206 1.059-1.012 1.061-1.308 0-.059-.286-.183-.64-.276-.538-.142-.66-.133-.773.062-.671 1.177-1.816.782-1.816-.626 0-.408.104-.867.239-1.057.314-.44 1.046-.45 1.355-.018.191.27.32.302.854.213.351-.058.628-.189.628-.297 0-.246-.561-.95-.896-1.122-.405-.208-1.444-.305-1.949-.182zm5.093.012c-1.401.437-2.018 2.143-1.303 3.595.771 1.562 3.389 1.679 4.398.197.713-1.048.352-2.946-.675-3.526-.575-.326-1.797-.461-2.42-.266zm4.213 2.417v2.416h1.232l.013-1.698c.014-1.837-.019-1.867.629.536l.318 1.178.549-.046.546-.046.395-1.51.395-1.509.077 1.51.076 1.51h1.233l.041-2.385.042-2.385-1.041.045-1.043.045-.308 1.157c-.359 1.356-.463 1.51-.592.88a19.717 19.717 0 0 0-.339-1.287l-.245-.826h-1.978v2.415zm6.462 0v2.416h1.537v-1.774l.848-.07c1.398-.113 2.115-1.135 1.55-2.21-.357-.677-.665-.777-2.387-.777h-1.548v2.415zm4.922.005v2.42l1.885-.042 1.884-.043.048-.566.048-.566h-2.325v-3.623h-1.54v2.42zm4.615.004v2.423l.731-.046.731-.046.042-2.377.044-2.378h-1.548v2.424zm3.773-2.166c-.63 1.532-1.619 4.197-1.619 4.363 0 .149.206.21.7.21.64 0 .715-.04.863-.453.151-.426.207-.453.976-.453s.825.027.977.453c.145.41.224.453.835.453.372 0 .713-.038.76-.083.046-.046-.315-1.116-.806-2.378l-.889-2.294-.844-.045c-.691-.037-.862.003-.953.227zm4.074 2.157v2.416h1.371l.046-1.284.044-1.285.891 1.285.892 1.284h1.371V53.51h-1.374l-.043 1.246-.046 1.245-.893-1.245c-.892-1.24-.9-1.246-1.577-1.246h-.682v2.415zm5.259-1.849c.048.56.056.567.773.612l.727.046.044 1.766.041 1.765.732.046.731.046v-3.64h1.537v-1.206h-4.633l.048.566zm-31.721.793c.223.218.308.5.306 1.019-.002.803-.081.973-.563 1.222-.48.249-.632.22-1.056-.196-.557-.547-.473-1.826.146-2.231.311-.205.858-.118 1.167.186zm11.617.15c0 .316-.083.386-.501.425-.467.045-.501.017-.501-.424 0-.442.034-.47.501-.425.418.04.501.11.501.425zm12.038 1.294c-.048.049-.253.066-.455.04-.365-.05-.365-.052-.143-.805l.224-.755.233.716c.127.394.191.756.141.804zm-44.471.823c-.673.887-2.296 3.482-2.221 3.555.039.04 3.17-.894 4.072-1.214.129-.045-.006-.5-.44-1.469-.347-.772-.676-1.454-.732-1.515-.058-.062-.363.228-.679.643z" clip-rule="evenodd"/></svg>