<svg xmlns="http://www.w3.org/2000/svg" width="1437" height="731" fill="none"><g clip-path="url(#a)"><path fill="#fff" d="M0 0h1437v731H0z"/><circle cx="21" cy="29" r="3" fill="#F2F2F2"/><circle cx="66" cy="29" r="3" fill="#F2F2F2"/><circle cx="111" cy="29" r="3" fill="#F2F2F2"/><circle cx="156" cy="29" r="3" fill="#F2F2F2"/><circle cx="201" cy="29" r="3" fill="#F2F2F2"/><circle cx="246" cy="29" r="3" fill="#F2F2F2"/><circle cx="291" cy="29" r="3" fill="#F2F2F2"/><circle cx="336" cy="29" r="3" fill="#F2F2F2"/><circle cx="381" cy="29" r="3" fill="#F2F2F2"/><circle cx="426" cy="29" r="3" fill="#F2F2F2"/><circle cx="471" cy="29" r="3" fill="#F2F2F2"/><circle cx="516" cy="29" r="3" fill="#F2F2F2"/><circle cx="561" cy="29" r="3" fill="#F2F2F2"/><circle cx="606" cy="29" r="3" fill="#F2F2F2"/><circle cx="651" cy="29" r="3" fill="#F2F2F2"/><circle cx="696" cy="29" r="3" fill="#F2F2F2"/><circle cx="741" cy="29" r="3" fill="#F2F2F2"/><circle cx="786" cy="29" r="3" fill="#F2F2F2"/><circle cx="831" cy="29" r="3" fill="#F2F2F2"/><circle cx="876" cy="29" r="3" fill="#F2F2F2"/><circle cx="921" cy="29" r="3" fill="#F2F2F2"/><circle cx="966" cy="29" r="3" fill="#F2F2F2"/><circle cx="1011" cy="29" r="3" fill="#F2F2F2"/><circle cx="1056" cy="29" r="3" fill="#F2F2F2"/><circle cx="1101" cy="29" r="3" fill="#F2F2F2"/><circle cx="1146" cy="29" r="3" fill="#F2F2F2"/><circle cx="1191" cy="29" r="3" fill="#F2F2F2"/><circle cx="1236" cy="29" r="3" fill="#F2F2F2"/><circle cx="1281" cy="29" r="3" fill="#F2F2F2"/><circle cx="1326" cy="29" r="3" fill="#F2F2F2"/><circle cx="1371" cy="29" r="3" fill="#F2F2F2"/><circle cx="1416" cy="29" r="3" fill="#F2F2F2"/><circle cx="21" cy="66" r="3" fill="#F2F2F2"/><circle cx="66" cy="66" r="3" fill="#F2F2F2"/><circle cx="111" cy="66" r="3" fill="#F2F2F2"/><circle cx="156" cy="66" r="3" fill="#F2F2F2"/><circle cx="201" cy="66" r="3" fill="#F2F2F2"/><circle cx="246" cy="66" r="3" fill="#F2F2F2"/><circle cx="291" cy="66" r="3" fill="#F2F2F2"/><circle cx="336" cy="66" r="3" fill="#F2F2F2"/><circle cx="381" cy="66" r="3" fill="#F2F2F2"/><circle cx="426" cy="66" r="3" fill="#F2F2F2"/><circle cx="471" cy="66" r="3" fill="#F2F2F2"/><circle cx="516" cy="66" r="3" fill="#F2F2F2"/><circle cx="561" cy="66" r="3" fill="#F2F2F2"/><circle cx="606" cy="66" r="3" fill="#F2F2F2"/><circle cx="651" cy="66" r="3" fill="#F2F2F2"/><circle cx="696" cy="66" r="3" fill="#F2F2F2"/><circle cx="741" cy="66" r="3" fill="#F2F2F2"/><circle cx="786" cy="66" r="3" fill="#F2F2F2"/><circle cx="831" cy="66" r="3" fill="#F2F2F2"/><circle cx="876" cy="66" r="3" fill="#F2F2F2"/><circle cx="921" cy="66" r="3" fill="#F2F2F2"/><circle cx="966" cy="66" r="3" fill="#F2F2F2"/><circle cx="1011" cy="66" r="3" fill="#F2F2F2"/><circle cx="1056" cy="66" r="3" fill="#F2F2F2"/><circle cx="1101" cy="66" r="3" fill="#F2F2F2"/><circle cx="1146" cy="66" r="3" fill="#F2F2F2"/><circle cx="1191" cy="66" r="3" fill="#F2F2F2"/><circle cx="1236" cy="66" r="3" fill="#F2F2F2"/><circle cx="1281" cy="66" r="3" fill="#F2F2F2"/><circle cx="1326" cy="66" r="3" fill="#F2F2F2"/><circle cx="1371" cy="66" r="3" fill="#F2F2F2"/><circle cx="1416" cy="66" r="3" fill="#F2F2F2"/><circle cx="21" cy="103" r="3" fill="#F2F2F2"/><circle cx="66" cy="103" r="3" fill="#F2F2F2"/><circle cx="111" cy="103" r="3" fill="#F2F2F2"/><circle cx="156" cy="103" r="3" fill="#F2F2F2"/><circle cx="201" cy="103" r="3" fill="#F2F2F2"/><circle cx="246" cy="103" r="3" fill="#F2F2F2"/><circle cx="291" cy="103" r="3" fill="#F2F2F2"/><circle cx="336" cy="103" r="3" fill="#F2F2F2"/><circle cx="381" cy="103" r="3" fill="#F2F2F2"/><circle cx="426" cy="103" r="3" fill="#F2F2F2"/><circle cx="471" cy="103" r="3" fill="#F2F2F2"/><circle cx="516" cy="103" r="3" fill="#F2F2F2"/><circle cx="561" cy="103" r="3" fill="#F2F2F2"/><circle cx="606" cy="103" r="3" fill="#F2F2F2"/><circle cx="651" cy="103" r="3" fill="#F2F2F2"/><circle cx="696" cy="103" r="3" fill="#F2F2F2"/><circle cx="741" cy="103" r="3" fill="#F2F2F2"/><circle cx="786" cy="103" r="3" fill="#F2F2F2"/><circle cx="831" cy="103" r="3" fill="#F2F2F2"/><circle cx="876" cy="103" r="3" fill="#F2F2F2"/><circle cx="921" cy="103" r="3" fill="#F2F2F2"/><circle cx="966" cy="103" r="3" fill="#F2F2F2"/><circle cx="1011" cy="103" r="3" fill="#F2F2F2"/><circle cx="1056" cy="103" r="3" fill="#F2F2F2"/><circle cx="1101" cy="103" r="3" fill="#F2F2F2"/><circle cx="1146" cy="103" r="3" fill="#F2F2F2"/><circle cx="1191" cy="103" r="3" fill="#F2F2F2"/><circle cx="1236" cy="103" r="3" fill="#F2F2F2"/><circle cx="1281" cy="103" r="3" fill="#F2F2F2"/><circle cx="1326" cy="103" r="3" fill="#F2F2F2"/><circle cx="1371" cy="103" r="3" fill="#F2F2F2"/><circle cx="1416" cy="103" r="3" fill="#F2F2F2"/><circle cx="21" cy="140" r="3" fill="#F2F2F2"/><circle cx="66" cy="140" r="3" fill="#F2F2F2"/><circle cx="111" cy="140" r="3" fill="#F2F2F2"/><circle cx="156" cy="140" r="3" fill="#F2F2F2"/><circle cx="201" cy="140" r="3" fill="#F2F2F2"/><circle cx="246" cy="140" r="3" fill="#F2F2F2"/><circle cx="291" cy="140" r="3" fill="#F2F2F2"/><circle cx="336" cy="140" r="3" fill="#F2F2F2"/><circle cx="381" cy="140" r="3" fill="#F2F2F2"/><circle cx="426" cy="140" r="3" fill="#F2F2F2"/><circle cx="471" cy="140" r="3" fill="#F2F2F2"/><circle cx="516" cy="140" r="3" fill="#F2F2F2"/><circle cx="561" cy="140" r="3" fill="#F2F2F2"/><circle cx="606" cy="140" r="3" fill="#F2F2F2"/><circle cx="651" cy="140" r="3" fill="#F2F2F2"/><circle cx="696" cy="140" r="3" fill="#F2F2F2"/><circle cx="741" cy="140" r="3" fill="#F2F2F2"/><circle cx="786" cy="140" r="3" fill="#F2F2F2"/><circle cx="831" cy="140" r="3" fill="#F2F2F2"/><circle cx="876" cy="140" r="3" fill="#F2F2F2"/><circle cx="921" cy="140" r="3" fill="#F2F2F2"/><circle cx="966" cy="140" r="3" fill="#F2F2F2"/><circle cx="1011" cy="140" r="3" fill="#F2F2F2"/><circle cx="1056" cy="140" r="3" fill="#F2F2F2"/><circle cx="1101" cy="140" r="3" fill="#F2F2F2"/><circle cx="1146" cy="140" r="3" fill="#F2F2F2"/><circle cx="1191" cy="140" r="3" fill="#F2F2F2"/><circle cx="1236" cy="140" r="3" fill="#F2F2F2"/><circle cx="1281" cy="140" r="3" fill="#F2F2F2"/><circle cx="1326" cy="140" r="3" fill="#F2F2F2"/><circle cx="1371" cy="140" r="3" fill="#F2F2F2"/><circle cx="1416" cy="140" r="3" fill="#F2F2F2"/><circle cx="21" cy="177" r="3" fill="#F2F2F2"/><circle cx="66" cy="177" r="3" fill="#F2F2F2"/><circle cx="111" cy="177" r="3" fill="#F2F2F2"/><circle cx="156" cy="177" r="3" fill="#F2F2F2"/><circle cx="201" cy="177" r="3" fill="#F2F2F2"/><circle cx="246" cy="177" r="3" fill="#F2F2F2"/><circle cx="291" cy="177" r="3" fill="#F2F2F2"/><circle cx="336" cy="177" r="3" fill="#F2F2F2"/><circle cx="381" cy="177" r="3" fill="#F2F2F2"/><circle cx="426" cy="177" r="3" fill="#F2F2F2"/><circle cx="471" cy="177" r="3" fill="#F2F2F2"/><circle cx="516" cy="177" r="3" fill="#F2F2F2"/><circle cx="561" cy="177" r="3" fill="#F2F2F2"/><circle cx="606" cy="177" r="3" fill="#F2F2F2"/><circle cx="651" cy="177" r="3" fill="#F2F2F2"/><circle cx="696" cy="177" r="3" fill="#F2F2F2"/><circle cx="741" cy="177" r="3" fill="#F2F2F2"/><circle cx="786" cy="177" r="3" fill="#F2F2F2"/><circle cx="831" cy="177" r="3" fill="#F2F2F2"/><circle cx="876" cy="177" r="3" fill="#F2F2F2"/><circle cx="921" cy="177" r="3" fill="#F2F2F2"/><circle cx="966" cy="177" r="3" fill="#F2F2F2"/><circle cx="1011" cy="177" r="3" fill="#F2F2F2"/><circle cx="1056" cy="177" r="3" fill="#F2F2F2"/><circle cx="1101" cy="177" r="3" fill="#F2F2F2"/><circle cx="1146" cy="177" r="3" fill="#F2F2F2"/><circle cx="1191" cy="177" r="3" fill="#F2F2F2"/><circle cx="1236" cy="177" r="3" fill="#F2F2F2"/><circle cx="1281" cy="177" r="3" fill="#F2F2F2"/><circle cx="1326" cy="177" r="3" fill="#F2F2F2"/><circle cx="1371" cy="177" r="3" fill="#F2F2F2"/><circle cx="1416" cy="177" r="3" fill="#F2F2F2"/><circle cx="21" cy="214" r="3" fill="#F2F2F2"/><circle cx="66" cy="214" r="3" fill="#F2F2F2"/><circle cx="111" cy="214" r="3" fill="#F2F2F2"/><circle cx="156" cy="214" r="3" fill="#F2F2F2"/><circle cx="201" cy="214" r="3" fill="#F2F2F2"/><circle cx="246" cy="214" r="3" fill="#F2F2F2"/><circle cx="291" cy="214" r="3" fill="#F2F2F2"/><circle cx="336" cy="214" r="3" fill="#F2F2F2"/><circle cx="381" cy="214" r="3" fill="#F2F2F2"/><circle cx="426" cy="214" r="3" fill="#F2F2F2"/><circle cx="471" cy="214" r="3" fill="#F2F2F2"/><circle cx="516" cy="214" r="3" fill="#F2F2F2"/><circle cx="561" cy="214" r="3" fill="#F2F2F2"/><circle cx="606" cy="214" r="3" fill="#F2F2F2"/><circle cx="651" cy="214" r="3" fill="#F2F2F2"/><circle cx="696" cy="214" r="3" fill="#F2F2F2"/><circle cx="741" cy="214" r="3" fill="#F2F2F2"/><circle cx="786" cy="214" r="3" fill="#F2F2F2"/><circle cx="831" cy="214" r="3" fill="#F2F2F2"/><circle cx="876" cy="214" r="3" fill="#F2F2F2"/><circle cx="921" cy="214" r="3" fill="#F2F2F2"/><circle cx="966" cy="214" r="3" fill="#F2F2F2"/><circle cx="1011" cy="214" r="3" fill="#F2F2F2"/><circle cx="1056" cy="214" r="3" fill="#F2F2F2"/><circle cx="1101" cy="214" r="3" fill="#F2F2F2"/><circle cx="1146" cy="214" r="3" fill="#F2F2F2"/><circle cx="1191" cy="214" r="3" fill="#F2F2F2"/><circle cx="1236" cy="214" r="3" fill="#F2F2F2"/><circle cx="1281" cy="214" r="3" fill="#F2F2F2"/><circle cx="1326" cy="214" r="3" fill="#F2F2F2"/><circle cx="1371" cy="214" r="3" fill="#F2F2F2"/><circle cx="1416" cy="214" r="3" fill="#F2F2F2"/><circle cx="21" cy="251" r="3" fill="#F2F2F2"/><circle cx="66" cy="251" r="3" fill="#F2F2F2"/><circle cx="111" cy="251" r="3" fill="#F2F2F2"/><circle cx="156" cy="251" r="3" fill="#F2F2F2"/><circle cx="201" cy="251" r="3" fill="#F2F2F2"/><circle cx="246" cy="251" r="3" fill="#F2F2F2"/><circle cx="291" cy="251" r="3" fill="#F2F2F2"/><circle cx="336" cy="251" r="3" fill="#F2F2F2"/><circle cx="381" cy="251" r="3" fill="#F2F2F2"/><circle cx="426" cy="251" r="3" fill="#F2F2F2"/><circle cx="471" cy="251" r="3" fill="#F2F2F2"/><circle cx="516" cy="251" r="3" fill="#F2F2F2"/><circle cx="561" cy="251" r="3" fill="#F2F2F2"/><circle cx="606" cy="251" r="3" fill="#F2F2F2"/><circle cx="651" cy="251" r="3" fill="#F2F2F2"/><circle cx="696" cy="251" r="3" fill="#F2F2F2"/><circle cx="741" cy="251" r="3" fill="#F2F2F2"/><circle cx="786" cy="251" r="3" fill="#F2F2F2"/><circle cx="831" cy="251" r="3" fill="#F2F2F2"/><circle cx="876" cy="251" r="3" fill="#F2F2F2"/><circle cx="921" cy="251" r="3" fill="#F2F2F2"/><circle cx="966" cy="251" r="3" fill="#F2F2F2"/><circle cx="1011" cy="251" r="3" fill="#F2F2F2"/><circle cx="1056" cy="251" r="3" fill="#F2F2F2"/><circle cx="1101" cy="251" r="3" fill="#F2F2F2"/><circle cx="1146" cy="251" r="3" fill="#F2F2F2"/><circle cx="1191" cy="251" r="3" fill="#F2F2F2"/><circle cx="1236" cy="251" r="3" fill="#F2F2F2"/><circle cx="1281" cy="251" r="3" fill="#F2F2F2"/><circle cx="1326" cy="251" r="3" fill="#F2F2F2"/><circle cx="1371" cy="251" r="3" fill="#F2F2F2"/><circle cx="1416" cy="251" r="3" fill="#F2F2F2"/><circle cx="21" cy="288" r="3" fill="#F2F2F2"/><circle cx="66" cy="288" r="3" fill="#F2F2F2"/><circle cx="111" cy="288" r="3" fill="#F2F2F2"/><circle cx="156" cy="288" r="3" fill="#F2F2F2"/><circle cx="201" cy="288" r="3" fill="#F2F2F2"/><circle cx="246" cy="288" r="3" fill="#F2F2F2"/><circle cx="291" cy="288" r="3" fill="#F2F2F2"/><circle cx="336" cy="288" r="3" fill="#F2F2F2"/><circle cx="381" cy="288" r="3" fill="#F2F2F2"/><circle cx="426" cy="288" r="3" fill="#F2F2F2"/><circle cx="471" cy="288" r="3" fill="#F2F2F2"/><circle cx="516" cy="288" r="3" fill="#F2F2F2"/><circle cx="561" cy="288" r="3" fill="#F2F2F2"/><circle cx="606" cy="288" r="3" fill="#F2F2F2"/><circle cx="651" cy="288" r="3" fill="#F2F2F2"/><circle cx="696" cy="288" r="3" fill="#F2F2F2"/><circle cx="741" cy="288" r="3" fill="#F2F2F2"/><circle cx="786" cy="288" r="3" fill="#F2F2F2"/><circle cx="831" cy="288" r="3" fill="#F2F2F2"/><circle cx="876" cy="288" r="3" fill="#F2F2F2"/><circle cx="921" cy="288" r="3" fill="#F2F2F2"/><circle cx="966" cy="288" r="3" fill="#F2F2F2"/><circle cx="1011" cy="288" r="3" fill="#F2F2F2"/><circle cx="1056" cy="288" r="3" fill="#F2F2F2"/><circle cx="1101" cy="288" r="3" fill="#F2F2F2"/><circle cx="1146" cy="288" r="3" fill="#F2F2F2"/><circle cx="1191" cy="288" r="3" fill="#F2F2F2"/><circle cx="1236" cy="288" r="3" fill="#F2F2F2"/><circle cx="1281" cy="288" r="3" fill="#F2F2F2"/><circle cx="1326" cy="288" r="3" fill="#F2F2F2"/><circle cx="1371" cy="288" r="3" fill="#F2F2F2"/><circle cx="1416" cy="288" r="3" fill="#F2F2F2"/><circle cx="21" cy="325" r="3" fill="#F2F2F2"/><circle cx="66" cy="325" r="3" fill="#F2F2F2"/><circle cx="111" cy="325" r="3" fill="#F2F2F2"/><circle cx="156" cy="325" r="3" fill="#F2F2F2"/><circle cx="201" cy="325" r="3" fill="#F2F2F2"/><circle cx="246" cy="325" r="3" fill="#F2F2F2"/><circle cx="291" cy="325" r="3" fill="#F2F2F2"/><circle cx="336" cy="325" r="3" fill="#F2F2F2"/><circle cx="381" cy="325" r="3" fill="#F2F2F2"/><circle cx="426" cy="325" r="3" fill="#F2F2F2"/><circle cx="471" cy="325" r="3" fill="#F2F2F2"/><circle cx="516" cy="325" r="3" fill="#F2F2F2"/><circle cx="561" cy="325" r="3" fill="#F2F2F2"/><circle cx="606" cy="325" r="3" fill="#F2F2F2"/><circle cx="651" cy="325" r="3" fill="#F2F2F2"/><circle cx="696" cy="325" r="3" fill="#F2F2F2"/><circle cx="741" cy="325" r="3" fill="#F2F2F2"/><circle cx="786" cy="325" r="3" fill="#F2F2F2"/><circle cx="831" cy="325" r="3" fill="#F2F2F2"/><circle cx="876" cy="325" r="3" fill="#F2F2F2"/><circle cx="921" cy="325" r="3" fill="#F2F2F2"/><circle cx="966" cy="325" r="3" fill="#F2F2F2"/><circle cx="1011" cy="325" r="3" fill="#F2F2F2"/><circle cx="1056" cy="325" r="3" fill="#F2F2F2"/><circle cx="1101" cy="325" r="3" fill="#F2F2F2"/><circle cx="1146" cy="325" r="3" fill="#F2F2F2"/><circle cx="1191" cy="325" r="3" fill="#F2F2F2"/><circle cx="1236" cy="325" r="3" fill="#F2F2F2"/><circle cx="1281" cy="325" r="3" fill="#F2F2F2"/><circle cx="1326" cy="325" r="3" fill="#F2F2F2"/><circle cx="1371" cy="325" r="3" fill="#F2F2F2"/><circle cx="1416" cy="325" r="3" fill="#F2F2F2"/><circle cx="21" cy="362" r="3" fill="#F2F2F2"/><circle cx="66" cy="362" r="3" fill="#F2F2F2"/><circle cx="111" cy="362" r="3" fill="#F2F2F2"/><circle cx="156" cy="362" r="3" fill="#F2F2F2"/><circle cx="201" cy="362" r="3" fill="#F2F2F2"/><circle cx="246" cy="362" r="3" fill="#F2F2F2"/><circle cx="291" cy="362" r="3" fill="#F2F2F2"/><circle cx="336" cy="362" r="3" fill="#F2F2F2"/><circle cx="381" cy="362" r="3" fill="#F2F2F2"/><circle cx="426" cy="362" r="3" fill="#F2F2F2"/><circle cx="471" cy="362" r="3" fill="#F2F2F2"/><circle cx="516" cy="362" r="3" fill="#F2F2F2"/><circle cx="561" cy="362" r="3" fill="#F2F2F2"/><circle cx="606" cy="362" r="3" fill="#F2F2F2"/><circle cx="651" cy="362" r="3" fill="#F2F2F2"/><circle cx="696" cy="362" r="3" fill="#F2F2F2"/><circle cx="741" cy="362" r="3" fill="#F2F2F2"/><circle cx="786" cy="362" r="3" fill="#F2F2F2"/><circle cx="831" cy="362" r="3" fill="#F2F2F2"/><circle cx="876" cy="362" r="3" fill="#F2F2F2"/><circle cx="921" cy="362" r="3" fill="#F2F2F2"/><circle cx="966" cy="362" r="3" fill="#F2F2F2"/><circle cx="1011" cy="362" r="3" fill="#F2F2F2"/><circle cx="1056" cy="362" r="3" fill="#F2F2F2"/><circle cx="1101" cy="362" r="3" fill="#F2F2F2"/><circle cx="1146" cy="362" r="3" fill="#F2F2F2"/><circle cx="1191" cy="362" r="3" fill="#F2F2F2"/><circle cx="1236" cy="362" r="3" fill="#F2F2F2"/><circle cx="1281" cy="362" r="3" fill="#F2F2F2"/><circle cx="1326" cy="362" r="3" fill="#F2F2F2"/><circle cx="1371" cy="362" r="3" fill="#F2F2F2"/><circle cx="1416" cy="362" r="3" fill="#F2F2F2"/><circle cx="21" cy="399" r="3" fill="#F2F2F2"/><circle cx="66" cy="399" r="3" fill="#F2F2F2"/><circle cx="111" cy="399" r="3" fill="#F2F2F2"/><circle cx="156" cy="399" r="3" fill="#F2F2F2"/><circle cx="201" cy="399" r="3" fill="#F2F2F2"/><circle cx="246" cy="399" r="3" fill="#F2F2F2"/><circle cx="291" cy="399" r="3" fill="#F2F2F2"/><circle cx="336" cy="399" r="3" fill="#F2F2F2"/><circle cx="381" cy="399" r="3" fill="#F2F2F2"/><circle cx="426" cy="399" r="3" fill="#F2F2F2"/><circle cx="471" cy="399" r="3" fill="#F2F2F2"/><circle cx="516" cy="399" r="3" fill="#F2F2F2"/><circle cx="561" cy="399" r="3" fill="#F2F2F2"/><circle cx="606" cy="399" r="3" fill="#F2F2F2"/><circle cx="651" cy="399" r="3" fill="#F2F2F2"/><circle cx="696" cy="399" r="3" fill="#F2F2F2"/><circle cx="741" cy="399" r="3" fill="#F2F2F2"/><circle cx="786" cy="399" r="3" fill="#F2F2F2"/><circle cx="831" cy="399" r="3" fill="#F2F2F2"/><circle cx="876" cy="399" r="3" fill="#F2F2F2"/><circle cx="921" cy="399" r="3" fill="#F2F2F2"/><circle cx="966" cy="399" r="3" fill="#F2F2F2"/><circle cx="1011" cy="399" r="3" fill="#F2F2F2"/><circle cx="1056" cy="399" r="3" fill="#F2F2F2"/><circle cx="1101" cy="399" r="3" fill="#F2F2F2"/><circle cx="1146" cy="399" r="3" fill="#F2F2F2"/><circle cx="1191" cy="399" r="3" fill="#F2F2F2"/><circle cx="1236" cy="399" r="3" fill="#F2F2F2"/><circle cx="1281" cy="399" r="3" fill="#F2F2F2"/><circle cx="1326" cy="399" r="3" fill="#F2F2F2"/><circle cx="1371" cy="399" r="3" fill="#F2F2F2"/><circle cx="1416" cy="399" r="3" fill="#F2F2F2"/><circle cx="21" cy="436" r="3" fill="#F2F2F2"/><circle cx="66" cy="436" r="3" fill="#F2F2F2"/><circle cx="111" cy="436" r="3" fill="#F2F2F2"/><circle cx="156" cy="436" r="3" fill="#F2F2F2"/><circle cx="201" cy="436" r="3" fill="#F2F2F2"/><circle cx="246" cy="436" r="3" fill="#F2F2F2"/><circle cx="291" cy="436" r="3" fill="#F2F2F2"/><circle cx="336" cy="436" r="3" fill="#F2F2F2"/><circle cx="381" cy="436" r="3" fill="#F2F2F2"/><circle cx="426" cy="436" r="3" fill="#F2F2F2"/><circle cx="471" cy="436" r="3" fill="#F2F2F2"/><circle cx="516" cy="436" r="3" fill="#F2F2F2"/><circle cx="561" cy="436" r="3" fill="#F2F2F2"/><circle cx="606" cy="436" r="3" fill="#F2F2F2"/><circle cx="651" cy="436" r="3" fill="#F2F2F2"/><circle cx="696" cy="436" r="3" fill="#F2F2F2"/><circle cx="741" cy="436" r="3" fill="#F2F2F2"/><circle cx="786" cy="436" r="3" fill="#F2F2F2"/><circle cx="831" cy="436" r="3" fill="#F2F2F2"/><circle cx="876" cy="436" r="3" fill="#F2F2F2"/><circle cx="921" cy="436" r="3" fill="#F2F2F2"/><circle cx="966" cy="436" r="3" fill="#F2F2F2"/><circle cx="1011" cy="436" r="3" fill="#F2F2F2"/><circle cx="1056" cy="436" r="3" fill="#F2F2F2"/><circle cx="1101" cy="436" r="3" fill="#F2F2F2"/><circle cx="1146" cy="436" r="3" fill="#F2F2F2"/><circle cx="1191" cy="436" r="3" fill="#F2F2F2"/><circle cx="1236" cy="436" r="3" fill="#F2F2F2"/><circle cx="1281" cy="436" r="3" fill="#F2F2F2"/><circle cx="1326" cy="436" r="3" fill="#F2F2F2"/><circle cx="1371" cy="436" r="3" fill="#F2F2F2"/><circle cx="1416" cy="436" r="3" fill="#F2F2F2"/><circle cx="21" cy="473" r="3" fill="#F2F2F2"/><circle cx="66" cy="473" r="3" fill="#F2F2F2"/><circle cx="111" cy="473" r="3" fill="#F2F2F2"/><circle cx="156" cy="473" r="3" fill="#F2F2F2"/><circle cx="201" cy="473" r="3" fill="#F2F2F2"/><circle cx="246" cy="473" r="3" fill="#F2F2F2"/><circle cx="291" cy="473" r="3" fill="#F2F2F2"/><circle cx="336" cy="473" r="3" fill="#F2F2F2"/><circle cx="381" cy="473" r="3" fill="#F2F2F2"/><circle cx="426" cy="473" r="3" fill="#F2F2F2"/><circle cx="471" cy="473" r="3" fill="#F2F2F2"/><circle cx="516" cy="473" r="3" fill="#F2F2F2"/><circle cx="561" cy="473" r="3" fill="#F2F2F2"/><circle cx="606" cy="473" r="3" fill="#F2F2F2"/><circle cx="651" cy="473" r="3" fill="#F2F2F2"/><circle cx="696" cy="473" r="3" fill="#F2F2F2"/><circle cx="741" cy="473" r="3" fill="#F2F2F2"/><circle cx="786" cy="473" r="3" fill="#F2F2F2"/><circle cx="831" cy="473" r="3" fill="#F2F2F2"/><circle cx="876" cy="473" r="3" fill="#F2F2F2"/><circle cx="921" cy="473" r="3" fill="#F2F2F2"/><circle cx="966" cy="473" r="3" fill="#F2F2F2"/><circle cx="1011" cy="473" r="3" fill="#F2F2F2"/><circle cx="1056" cy="473" r="3" fill="#F2F2F2"/><circle cx="1101" cy="473" r="3" fill="#F2F2F2"/><circle cx="1146" cy="473" r="3" fill="#F2F2F2"/><circle cx="1191" cy="473" r="3" fill="#F2F2F2"/><circle cx="1236" cy="473" r="3" fill="#F2F2F2"/><circle cx="1281" cy="473" r="3" fill="#F2F2F2"/><circle cx="1326" cy="473" r="3" fill="#F2F2F2"/><circle cx="1371" cy="473" r="3" fill="#F2F2F2"/><circle cx="1416" cy="473" r="3" fill="#F2F2F2"/><circle cx="21" cy="510" r="3" fill="#F2F2F2"/><circle cx="66" cy="510" r="3" fill="#F2F2F2"/><circle cx="111" cy="510" r="3" fill="#F2F2F2"/><circle cx="156" cy="510" r="3" fill="#F2F2F2"/><circle cx="201" cy="510" r="3" fill="#F2F2F2"/><circle cx="246" cy="510" r="3" fill="#F2F2F2"/><circle cx="291" cy="510" r="3" fill="#F2F2F2"/><circle cx="336" cy="510" r="3" fill="#F2F2F2"/><circle cx="381" cy="510" r="3" fill="#F2F2F2"/><circle cx="426" cy="510" r="3" fill="#F2F2F2"/><circle cx="471" cy="510" r="3" fill="#F2F2F2"/><circle cx="516" cy="510" r="3" fill="#F2F2F2"/><circle cx="561" cy="510" r="3" fill="#F2F2F2"/><circle cx="606" cy="510" r="3" fill="#F2F2F2"/><circle cx="651" cy="510" r="3" fill="#F2F2F2"/><circle cx="696" cy="510" r="3" fill="#F2F2F2"/><circle cx="741" cy="510" r="3" fill="#F2F2F2"/><circle cx="786" cy="510" r="3" fill="#F2F2F2"/><circle cx="831" cy="510" r="3" fill="#F2F2F2"/><circle cx="876" cy="510" r="3" fill="#F2F2F2"/><circle cx="921" cy="510" r="3" fill="#F2F2F2"/><circle cx="966" cy="510" r="3" fill="#F2F2F2"/><circle cx="1011" cy="510" r="3" fill="#F2F2F2"/><circle cx="1056" cy="510" r="3" fill="#F2F2F2"/><circle cx="1101" cy="510" r="3" fill="#F2F2F2"/><circle cx="1146" cy="510" r="3" fill="#F2F2F2"/><circle cx="1191" cy="510" r="3" fill="#F2F2F2"/><circle cx="1236" cy="510" r="3" fill="#F2F2F2"/><circle cx="1281" cy="510" r="3" fill="#F2F2F2"/><circle cx="1326" cy="510" r="3" fill="#F2F2F2"/><circle cx="1371" cy="510" r="3" fill="#F2F2F2"/><circle cx="1416" cy="510" r="3" fill="#F2F2F2"/><circle cx="21" cy="547" r="3" fill="#F2F2F2"/><circle cx="66" cy="547" r="3" fill="#F2F2F2"/><circle cx="111" cy="547" r="3" fill="#F2F2F2"/><circle cx="156" cy="547" r="3" fill="#F2F2F2"/><circle cx="201" cy="547" r="3" fill="#F2F2F2"/><circle cx="246" cy="547" r="3" fill="#F2F2F2"/><circle cx="291" cy="547" r="3" fill="#F2F2F2"/><circle cx="336" cy="547" r="3" fill="#F2F2F2"/><circle cx="381" cy="547" r="3" fill="#F2F2F2"/><circle cx="426" cy="547" r="3" fill="#F2F2F2"/><circle cx="471" cy="547" r="3" fill="#F2F2F2"/><circle cx="516" cy="547" r="3" fill="#F2F2F2"/><circle cx="561" cy="547" r="3" fill="#F2F2F2"/><circle cx="606" cy="547" r="3" fill="#F2F2F2"/><circle cx="651" cy="547" r="3" fill="#F2F2F2"/><circle cx="696" cy="547" r="3" fill="#F2F2F2"/><circle cx="741" cy="547" r="3" fill="#F2F2F2"/><circle cx="786" cy="547" r="3" fill="#F2F2F2"/><circle cx="831" cy="547" r="3" fill="#F2F2F2"/><circle cx="876" cy="547" r="3" fill="#F2F2F2"/><circle cx="921" cy="547" r="3" fill="#F2F2F2"/><circle cx="966" cy="547" r="3" fill="#F2F2F2"/><circle cx="1011" cy="547" r="3" fill="#F2F2F2"/><circle cx="1056" cy="547" r="3" fill="#F2F2F2"/><circle cx="1101" cy="547" r="3" fill="#F2F2F2"/><circle cx="1146" cy="547" r="3" fill="#F2F2F2"/><circle cx="1191" cy="547" r="3" fill="#F2F2F2"/><circle cx="1236" cy="547" r="3" fill="#F2F2F2"/><circle cx="1281" cy="547" r="3" fill="#F2F2F2"/><circle cx="1326" cy="547" r="3" fill="#F2F2F2"/><circle cx="1371" cy="547" r="3" fill="#F2F2F2"/><circle cx="1416" cy="547" r="3" fill="#F2F2F2"/><circle cx="21" cy="584" r="3" fill="#F2F2F2"/><circle cx="66" cy="584" r="3" fill="#F2F2F2"/><circle cx="111" cy="584" r="3" fill="#F2F2F2"/><circle cx="156" cy="584" r="3" fill="#F2F2F2"/><circle cx="201" cy="584" r="3" fill="#F2F2F2"/><circle cx="246" cy="584" r="3" fill="#F2F2F2"/><circle cx="291" cy="584" r="3" fill="#F2F2F2"/><circle cx="336" cy="584" r="3" fill="#F2F2F2"/><circle cx="381" cy="584" r="3" fill="#F2F2F2"/><circle cx="426" cy="584" r="3" fill="#F2F2F2"/><circle cx="471" cy="584" r="3" fill="#F2F2F2"/><circle cx="516" cy="584" r="3" fill="#F2F2F2"/><circle cx="561" cy="584" r="3" fill="#F2F2F2"/><circle cx="606" cy="584" r="3" fill="#F2F2F2"/><circle cx="651" cy="584" r="3" fill="#F2F2F2"/><circle cx="696" cy="584" r="3" fill="#F2F2F2"/><circle cx="741" cy="584" r="3" fill="#F2F2F2"/><circle cx="786" cy="584" r="3" fill="#F2F2F2"/><circle cx="831" cy="584" r="3" fill="#F2F2F2"/><circle cx="876" cy="584" r="3" fill="#F2F2F2"/><circle cx="921" cy="584" r="3" fill="#F2F2F2"/><circle cx="966" cy="584" r="3" fill="#F2F2F2"/><circle cx="1011" cy="584" r="3" fill="#F2F2F2"/><circle cx="1056" cy="584" r="3" fill="#F2F2F2"/><circle cx="1101" cy="584" r="3" fill="#F2F2F2"/><circle cx="1146" cy="584" r="3" fill="#F2F2F2"/><circle cx="1191" cy="584" r="3" fill="#F2F2F2"/><circle cx="1236" cy="584" r="3" fill="#F2F2F2"/><circle cx="1281" cy="584" r="3" fill="#F2F2F2"/><circle cx="1326" cy="584" r="3" fill="#F2F2F2"/><circle cx="1371" cy="584" r="3" fill="#F2F2F2"/><circle cx="1416" cy="584" r="3" fill="#F2F2F2"/><circle cx="21" cy="621" r="3" fill="#F2F2F2"/><circle cx="66" cy="621" r="3" fill="#F2F2F2"/><circle cx="111" cy="621" r="3" fill="#F2F2F2"/><circle cx="156" cy="621" r="3" fill="#F2F2F2"/><circle cx="201" cy="621" r="3" fill="#F2F2F2"/><circle cx="246" cy="621" r="3" fill="#F2F2F2"/><circle cx="291" cy="621" r="3" fill="#F2F2F2"/><circle cx="336" cy="621" r="3" fill="#F2F2F2"/><circle cx="381" cy="621" r="3" fill="#F2F2F2"/><circle cx="426" cy="621" r="3" fill="#F2F2F2"/><circle cx="471" cy="621" r="3" fill="#F2F2F2"/><circle cx="516" cy="621" r="3" fill="#F2F2F2"/><circle cx="561" cy="621" r="3" fill="#F2F2F2"/><circle cx="606" cy="621" r="3" fill="#F2F2F2"/><circle cx="651" cy="621" r="3" fill="#F2F2F2"/><circle cx="696" cy="621" r="3" fill="#F2F2F2"/><circle cx="741" cy="621" r="3" fill="#F2F2F2"/><circle cx="786" cy="621" r="3" fill="#F2F2F2"/><circle cx="831" cy="621" r="3" fill="#F2F2F2"/><circle cx="876" cy="621" r="3" fill="#F2F2F2"/><circle cx="921" cy="621" r="3" fill="#F2F2F2"/><circle cx="966" cy="621" r="3" fill="#F2F2F2"/><circle cx="1011" cy="621" r="3" fill="#F2F2F2"/><circle cx="1056" cy="621" r="3" fill="#F2F2F2"/><circle cx="1101" cy="621" r="3" fill="#F2F2F2"/><circle cx="1146" cy="621" r="3" fill="#F2F2F2"/><circle cx="1191" cy="621" r="3" fill="#F2F2F2"/><circle cx="1236" cy="621" r="3" fill="#F2F2F2"/><circle cx="1281" cy="621" r="3" fill="#F2F2F2"/><circle cx="1326" cy="621" r="3" fill="#F2F2F2"/><circle cx="1371" cy="621" r="3" fill="#F2F2F2"/><circle cx="1416" cy="621" r="3" fill="#F2F2F2"/><circle cx="21" cy="658" r="3" fill="#F2F2F2"/><circle cx="66" cy="658" r="3" fill="#F2F2F2"/><circle cx="111" cy="658" r="3" fill="#F2F2F2"/><circle cx="156" cy="658" r="3" fill="#F2F2F2"/><circle cx="201" cy="658" r="3" fill="#F2F2F2"/><circle cx="246" cy="658" r="3" fill="#F2F2F2"/><circle cx="291" cy="658" r="3" fill="#F2F2F2"/><circle cx="336" cy="658" r="3" fill="#F2F2F2"/><circle cx="381" cy="658" r="3" fill="#F2F2F2"/><circle cx="426" cy="658" r="3" fill="#F2F2F2"/><circle cx="471" cy="658" r="3" fill="#F2F2F2"/><circle cx="516" cy="658" r="3" fill="#F2F2F2"/><circle cx="561" cy="658" r="3" fill="#F2F2F2"/><circle cx="606" cy="658" r="3" fill="#F2F2F2"/><circle cx="651" cy="658" r="3" fill="#F2F2F2"/><circle cx="696" cy="658" r="3" fill="#F2F2F2"/><circle cx="741" cy="658" r="3" fill="#F2F2F2"/><circle cx="786" cy="658" r="3" fill="#F2F2F2"/><circle cx="831" cy="658" r="3" fill="#F2F2F2"/><circle cx="876" cy="658" r="3" fill="#F2F2F2"/><circle cx="921" cy="658" r="3" fill="#F2F2F2"/><circle cx="966" cy="658" r="3" fill="#F2F2F2"/><circle cx="1011" cy="658" r="3" fill="#F2F2F2"/><circle cx="1056" cy="658" r="3" fill="#F2F2F2"/><circle cx="1101" cy="658" r="3" fill="#F2F2F2"/><circle cx="1146" cy="658" r="3" fill="#F2F2F2"/><circle cx="1191" cy="658" r="3" fill="#F2F2F2"/><circle cx="1236" cy="658" r="3" fill="#F2F2F2"/><circle cx="1281" cy="658" r="3" fill="#F2F2F2"/><circle cx="1326" cy="658" r="3" fill="#F2F2F2"/><circle cx="1371" cy="658" r="3" fill="#F2F2F2"/><circle cx="1416" cy="658" r="3" fill="#F2F2F2"/><circle cx="21" cy="695" r="3" fill="#F2F2F2"/><circle cx="66" cy="695" r="3" fill="#F2F2F2"/><circle cx="111" cy="695" r="3" fill="#F2F2F2"/><circle cx="156" cy="695" r="3" fill="#F2F2F2"/><circle cx="201" cy="695" r="3" fill="#F2F2F2"/><circle cx="246" cy="695" r="3" fill="#F2F2F2"/><circle cx="291" cy="695" r="3" fill="#F2F2F2"/><circle cx="336" cy="695" r="3" fill="#F2F2F2"/><circle cx="381" cy="695" r="3" fill="#F2F2F2"/><circle cx="426" cy="695" r="3" fill="#F2F2F2"/><circle cx="471" cy="695" r="3" fill="#F2F2F2"/><circle cx="516" cy="695" r="3" fill="#F2F2F2"/><circle cx="561" cy="695" r="3" fill="#F2F2F2"/><circle cx="606" cy="695" r="3" fill="#F2F2F2"/><circle cx="651" cy="695" r="3" fill="#F2F2F2"/><circle cx="696" cy="695" r="3" fill="#F2F2F2"/><circle cx="741" cy="695" r="3" fill="#F2F2F2"/><circle cx="786" cy="695" r="3" fill="#F2F2F2"/><circle cx="831" cy="695" r="3" fill="#F2F2F2"/><circle cx="876" cy="695" r="3" fill="#F2F2F2"/><circle cx="921" cy="695" r="3" fill="#F2F2F2"/><circle cx="966" cy="695" r="3" fill="#F2F2F2"/><circle cx="1011" cy="695" r="3" fill="#F2F2F2"/><circle cx="1056" cy="695" r="3" fill="#F2F2F2"/><circle cx="1101" cy="695" r="3" fill="#F2F2F2"/><circle cx="1146" cy="695" r="3" fill="#F2F2F2"/><circle cx="1191" cy="695" r="3" fill="#F2F2F2"/><circle cx="1236" cy="695" r="3" fill="#F2F2F2"/><circle cx="1281" cy="695" r="3" fill="#F2F2F2"/><circle cx="1326" cy="695" r="3" fill="#F2F2F2"/><circle cx="1371" cy="695" r="3" fill="#F2F2F2"/><circle cx="1416" cy="695" r="3" fill="#F2F2F2"/><circle cx="21" cy="732" r="3" fill="#F2F2F2"/><circle cx="66" cy="732" r="3" fill="#F2F2F2"/><circle cx="111" cy="732" r="3" fill="#F2F2F2"/><circle cx="156" cy="732" r="3" fill="#F2F2F2"/><circle cx="201" cy="732" r="3" fill="#F2F2F2"/><circle cx="246" cy="732" r="3" fill="#F2F2F2"/><circle cx="291" cy="732" r="3" fill="#F2F2F2"/><circle cx="336" cy="732" r="3" fill="#F2F2F2"/><circle cx="381" cy="732" r="3" fill="#F2F2F2"/><circle cx="426" cy="732" r="3" fill="#F2F2F2"/><circle cx="471" cy="732" r="3" fill="#F2F2F2"/><circle cx="516" cy="732" r="3" fill="#F2F2F2"/><circle cx="561" cy="732" r="3" fill="#F2F2F2"/><circle cx="606" cy="732" r="3" fill="#F2F2F2"/><circle cx="651" cy="732" r="3" fill="#F2F2F2"/><circle cx="696" cy="732" r="3" fill="#F2F2F2"/><circle cx="741" cy="732" r="3" fill="#F2F2F2"/><circle cx="786" cy="732" r="3" fill="#F2F2F2"/><circle cx="831" cy="732" r="3" fill="#F2F2F2"/><circle cx="876" cy="732" r="3" fill="#F2F2F2"/><circle cx="921" cy="732" r="3" fill="#F2F2F2"/><circle cx="966" cy="732" r="3" fill="#F2F2F2"/><circle cx="1011" cy="732" r="3" fill="#F2F2F2"/><circle cx="1056" cy="732" r="3" fill="#F2F2F2"/><circle cx="1101" cy="732" r="3" fill="#F2F2F2"/><circle cx="1146" cy="732" r="3" fill="#F2F2F2"/><circle cx="1191" cy="732" r="3" fill="#F2F2F2"/><circle cx="1236" cy="732" r="3" fill="#F2F2F2"/><circle cx="1281" cy="732" r="3" fill="#F2F2F2"/><circle cx="1326" cy="732" r="3" fill="#F2F2F2"/><circle cx="1371" cy="732" r="3" fill="#F2F2F2"/><circle cx="1416" cy="732" r="3" fill="#F2F2F2"/></g><defs><clipPath id="a"><path fill="#fff" d="M0 0h1437v731H0z"/></clipPath></defs></svg>